<?xml version="1.0" encoding="UTF-8" standalone="no"?>
<!DOCTYPE svg PUBLIC "-//W3C//DTD SVG 1.1//EN" "http://www.w3.org/Graphics/SVG/1.1/DTD/svg11.dtd">
<svg width="100%" height="100%" viewBox="0 0 1024 1024" version="1.1" xmlns="http://www.w3.org/2000/svg" xmlns:xlink="http://www.w3.org/1999/xlink" xml:space="preserve" xmlns:serif="http://www.serif.com/" style="fill-rule:evenodd;clip-rule:evenodd;stroke-linejoin:round;stroke-miterlimit:2;">
    <g  <circle cx="515.225" cy="516.138" r="487.141" style="fill:rgb(33,50,135);"/>
        <path d="M0,-9.795C2.705,-9.795 4.897,-7.602 4.897,-4.898C4.897,-2.193 2.705,0 0,0C-2.705,0 -4.897,-2.193 -4.897,-4.898C-4.897,-7.602 -2.705,-9.795 0,-9.795" style="fill:white;fill-rule:nonzero;"/>
        <path d="M0,65.548
        C-37.455,39.799 -16.758,1.057 -15.825,-0.639
        C-14.955,-2.209 -15.522,-4.187 -17.092,-5.057
        C-18.663,-5.928 -20.64,-5.361 -21.51,-3.79
        C-21.766,-3.329 -27.785,7.681 -28.669,22.381
        C-29.496,36.112 -25.831,55.678 -3.683,70.903C-3.12,71.29 -2.479,71.476 -1.844,71.476C-0.81,71.476 0.207,70.984 0.837,70.067C1.854,68.588 1.479,66.565 0,65.548" style="fill:white;fill-rule:nonzero;"/>
        <path d="M0,215.066C-0.305,215.066 -0.817,214.658 -0.889,214.298L-6.149,186.91C-4.652,185.676 -3.395,184.167 -2.441,182.463L4.058,215.066L0,215.066ZM-25.1,174.888C-25.1,169.887 -21.03,165.819 -16.03,165.819C-15.201,165.819 -14.401,165.94 -13.638,166.149C-13.341,166.301 -13.022,166.412 -12.688,166.465C-9.338,167.799 -6.962,171.069 -6.962,174.888C-6.962,179.888 -11.03,183.957 -16.03,183.957C-21.03,183.957 -25.1,179.888 -25.1,174.888M-12.999,129.499L-6.382,162.692C-7.289,161.973 -8.278,161.36 -9.332,160.855L-15.522,129.499L-12.999,129.499ZM-18.501,101.896L-14.295,122.999L-16.806,122.999L-20.972,101.896L-18.501,101.896ZM-24.003,74.293L-19.797,95.396L-22.255,95.396L-26.422,74.293L-24.003,74.293ZM-29.506,46.691L-25.299,67.793L-27.705,67.793L-31.871,46.691L-29.506,46.691ZM-132.304,73.582C-131.884,75.015 -130.547,75.982 -129.048,75.915L-123.141,75.665C-127.836,81.43 -133.173,88.623 -137.362,96.988L-137.851,97.979C-140.223,102.876 -142.184,108.164 -143.389,113.792L-143.669,115.18C-146.135,128.17 -144.498,142.92 -134.594,158.843C-129.551,166.952 -123.456,169.49 -119.231,170.191C-118.126,170.373 -117.001,169.975 -116.259,169.132C-115.932,168.76 -115.585,168.359 -115.22,167.935C-110.15,162.051 -105.013,156.912 -98.197,158.053C-99.043,161.162 -101.403,166.59 -107.942,171.05C-108.865,171.68 -109.396,172.743 -109.354,173.859C-109.312,174.976 -108.695,175.996 -107.727,176.554C-107.671,176.587 -102.156,179.818 -100.362,184.851C-98.935,188.855 -99.322,192.09 -99.816,193.957C-103.989,193.49 -113.477,190.775 -116.608,175.962C-116.916,174.506 -118.173,173.446 -119.66,173.387C-139.894,172.586 -167.234,165.889 -182.575,138.539C-194.458,117.352 -191.534,96.655 -182.201,81.933L-182.04,81.728C-181.889,81.537 -181.768,81.333 -181.667,81.123C-179.188,77.367 -176.296,74.011 -173.124,71.166C-171.869,70.041 -170.579,69.004 -169.263,68.036C-167.59,72.697 -162.156,83.958 -147.358,89.698C-146.972,89.848 -146.574,89.92 -146.184,89.92C-144.881,89.92 -143.652,89.131 -143.153,87.844C-142.503,86.17 -143.334,84.288 -145.007,83.639C-160.221,77.736 -163.438,65.045 -163.573,64.485C-163.576,64.471 -163.583,64.458 -163.587,64.443C-157.14,60.974 -150.222,59.213 -143.285,59.213C-136.116,59.213 -128.93,61.082 -122.235,64.851L-130.823,69.86C-132.113,70.613 -132.725,72.149 -132.304,73.582M-130.939,107.673C-132.336,107.822 -133.783,108.052 -135.183,108.388C-134.752,107.128 -134.282,105.889 -133.78,104.67L-130.939,107.673ZM-186.722,144.312C-185.197,146.801 -183.577,149.119 -181.881,151.285C-183.61,151.763 -185.262,152.561 -186.722,153.444L-186.722,144.312ZM-204.144,109.783L-195.933,99.361C-196.573,102.805 -196.912,106.369 -196.913,110.027C-199.133,109.453 -201.678,109.472 -204.144,109.783M10.53,214.276L-23.651,42.805C-23.652,42.803 -23.653,42.8 -23.654,42.797C-23.74,42.369 -23.91,41.97 -24.146,41.621C-24.208,41.53 -24.284,41.454 -24.354,41.37C-24.418,41.293 -24.476,41.209 -24.547,41.138C-24.612,41.072 -24.689,41.021 -24.761,40.962C-24.851,40.886 -24.935,40.806 -25.031,40.741C-25.092,40.7 -25.16,40.673 -25.223,40.637C-25.341,40.568 -25.456,40.496 -25.583,40.443C-25.973,40.279 -26.396,40.191 -26.834,40.191L-33.154,40.191L-34.088,35.463C-34.096,35.423 -34.104,35.384 -34.113,35.345C-42.191,1.176 -65.363,-6.5 -82.754,-2.684C-104.824,2.155 -123.788,25.971 -120.277,58.516C-138.983,48.586 -160.77,51.358 -177.464,66.327C-181.214,69.69 -184.621,73.679 -187.503,78.161L-215.142,113.239C-216.042,114.381 -216.073,115.981 -215.22,117.158C-214.595,118.019 -213.607,118.501 -212.587,118.501C-212.213,118.501 -211.835,118.435 -211.469,118.301C-205.376,116.071 -198.398,115.387 -197.382,116.919C-197.116,117.32 -196.772,117.636 -196.389,117.876C-195.823,122.119 -194.793,126.451 -193.222,130.836L-193.222,160.073C-193.222,161.386 -192.429,162.569 -191.216,163.073C-190.814,163.24 -190.392,163.321 -189.973,163.321C-189.127,163.321 -188.295,162.991 -187.673,162.37C-185.009,159.712 -179.935,156.354 -177.504,157.579C-177.015,157.826 -176.495,157.922 -175.983,157.914C-159.976,173.73 -139.214,178.733 -122.377,179.758C-117.021,199.479 -101.255,200.535 -97.962,200.535C-97.589,200.535 -97.376,200.521 -97.355,200.519C-96.268,200.436 -95.293,199.811 -94.763,198.856C-94.605,198.574 -90.968,191.846 -94.238,182.67L-94.238,182.669C-95.647,178.716 -98.426,175.662 -100.74,173.657C-91.783,165.653 -91.258,156.303 -91.238,155.864C-91.176,154.463 -92.02,153.181 -93.33,152.682C-106.138,147.812 -114.997,157.724 -119.869,163.373C-123.379,162.269 -126.47,159.598 -129.075,155.41C-137.991,141.075 -139.499,127.841 -137.244,116.108C-136.038,114.87 -130.016,113.684 -123.738,113.949C-122.406,114.006 -121.191,113.253 -120.643,112.049C-120.094,110.845 -120.329,109.429 -121.238,108.468L-130.807,98.355C-125.599,88.508 -118.651,80.333 -113.449,74.212C-112.612,73.228 -112.438,71.841 -113.005,70.681C-113.572,69.521 -114.77,68.798 -116.063,68.86L-116.219,68.866L-114.359,67.781C-114.333,67.766 -114.322,67.748 -114.298,67.733C-113.172,67.038 -112.533,65.703 -112.811,64.33C-119.328,32.102 -101.938,8.177 -81.361,3.666C-66.865,0.486 -47.455,7.257 -40.453,36.782L-39.776,40.205C-41.503,40.282 -42.883,41.695 -42.883,43.441C-42.883,45.235 -41.428,46.691 -39.633,46.691L-38.496,46.691L-34.327,67.811C-36.036,67.906 -37.396,69.31 -37.396,71.043C-37.396,72.838 -35.942,74.293 -34.146,74.293L-33.047,74.293L-28.877,95.417C-30.569,95.53 -31.912,96.924 -31.912,98.646C-31.912,100.441 -30.457,101.896 -28.662,101.896L-27.598,101.896L-23.427,123.024C-25.103,123.154 -26.426,124.54 -26.426,126.249C-26.426,128.044 -24.972,129.499 -23.176,129.499L-22.148,129.499L-16.259,159.331C-23.626,159.438 -29.769,164.682 -31.252,171.638L-35.352,171.638L-35.352,166.423C-35.352,164.628 -36.808,163.173 -38.602,163.173C-40.396,163.173 -41.852,164.628 -41.852,166.423L-41.852,182.249C-41.852,184.044 -40.396,185.499 -38.602,185.499C-36.808,185.499 -35.352,184.044 -35.352,182.249L-35.352,178.138L-31.252,178.138C-29.753,185.167 -23.5,190.457 -16.03,190.457C-14.7,190.457 -13.416,190.271 -12.183,189.956L-7.268,215.545C-6.597,218.921 -3.404,221.566 0,221.566L4.615,221.566C6.476,221.566 8.19,220.778 9.317,219.404C10.461,218.012 10.901,216.144 10.53,214.276" style="fill:white;fill-rule:nonzero;"/>
    </g>
</svg>
