<?xml version="1.0" encoding="UTF-8" standalone="no"?>
<!DOCTYPE svg PUBLIC "-//W3C//DTD SVG 1.1//EN" "http://www.w3.org/Graphics/SVG/1.1/DTD/svg11.dtd">
<svg width="100%" height="100%" viewBox="0 0 800 1280" version="1.1" xmlns="http://www.w3.org/2000/svg" xmlns:xlink="http://www.w3.org/1999/xlink" xml:space="preserve" xmlns:serif="http://www.serif.com/" style="fill-rule:evenodd;clip-rule:evenodd;stroke-linecap:round;stroke-linejoin:round;stroke-miterlimit:1.5;">
    <circle cx="410.975" cy="416.057" r="307.569" style="fill:rgb(79,165,205);stroke:rgb(0,4,166);stroke-width:35px;"/>
    <path d="M692.033,504.626C650.923,611.622 570.842,710.906 395.363,709.281C219.883,707.655 140.544,543.474 132.988,510.374C129.26,494.039 190.942,467.544 197.784,468.456C204.626,469.368 250,503.737 280.55,505.503C311.099,507.269 336.971,461.012 366.982,464.205C396.994,467.398 397.649,456.807 427.965,481.17C458.281,505.532 459.924,509.813 493.14,506.368C526.357,502.924 534.556,488.789 554.626,480.018C574.696,471.246 590.064,456.918 614.883,472.181C639.702,487.444 693.899,499.768 692.033,504.626Z" style="fill:rgb(0,4,166);stroke:rgb(0,4,166);stroke-width:8.5px;"/>
    <g transform="matrix(0.962297,0.272001,-0.303531,1.07259,128.454,-133.309)">
        <path d="M396.936,501.795L397.322,228.526" style="fill:none;stroke:rgb(255,97,0);stroke-width:23.61px;"/>
    </g>
    <g transform="matrix(1.25307,0.354408,-0.325313,1.1502,20.9168,-189.702)">
        <path d="M418.643,428.702L418.643,569.105C418.643,576.203 413.354,581.965 406.839,581.965L383.231,581.965C376.716,581.965 371.427,576.203 371.427,569.105L371.427,428.702C371.427,421.604 376.716,415.842 383.231,415.842L406.839,415.842C413.354,415.842 418.643,421.604 418.643,428.702Z" style="fill:rgb(255,130,0);stroke:rgb(255,130,0);stroke-width:24.8px;"/>
    </g>
    <g transform="matrix(1.50175,0,0,1,-21.4246,66.1813)">
        <path d="M109.146,426.462C109.146,426.462 130.617,391.38 150.097,388.129C163.948,385.817 175.339,420.52 210.865,424.111C246.391,427.702 235.199,381.696 267.585,383.515C299.971,385.333 293.612,427.591 340.139,426.146C386.665,424.702 368.542,388.506 398.401,386.953C426.814,385.476 432.324,425.345 466.078,424.86" style="fill:none;stroke:white;stroke-width:21.16px;"/>
    </g>
    <g transform="matrix(1.4684,0.41531,-0.380433,1.34508,-38.3644,-269.415)">
        <ellipse cx="389.035" cy="336.322" rx="9.807" ry="10.035" style="fill:rgb(255,130,0);stroke:rgb(255,130,0);stroke-width:23.23px;"/>
    </g>
    <g transform="matrix(1.59461,0.451008,-0.445763,1.57607,-81.1801,-333.091)">
        <ellipse cx="394.287" cy="232.874" rx="18.07" ry="17.073" style="fill:rgb(255,130,0);stroke:rgb(255,130,0);stroke-width:18.82px;"/>
    </g>
</svg>
